<?xml version="1.0" encoding="utf-8"?>
<!-- Svg Vector Icons : http://www.onlinewebfonts.com/icon -->
<!DOCTYPE svg PUBLIC "-//W3C//DTD SVG 1.1//EN" "http://www.w3.org/Graphics/SVG/1.1/DTD/svg11.dtd">
<svg version="1.1" xmlns="http://www.w3.org/2000/svg" xmlns:xlink="http://www.w3.org/1999/xlink" x="0px" y="0px" viewBox="0 0 1000 1000" enable-background="new 0 0 1000 1000" xml:space="preserve">
<metadata> Svg Vector Icons : http://www.onlinewebfonts.com/icon </metadata>
<g><path d="M500,10c270.6,0,490,219.4,490,490c0,270.6-219.4,490-490,490C229.4,990,10,770.6,10,500C10,229.4,229.4,10,500,10z M500,898.1c219.9,0,398.1-178.2,398.1-398.1c0-219.9-178.2-398.1-398.1-398.1c-219.9,0-398.1,178.2-398.1,398.1C101.9,719.9,280.1,898.1,500,898.1z M211.7,456.7l245-245c23.9-23.9,62.7-23.9,86.6,0c23.9,23.9,23.9,62.7,0,86.6L402.9,438.8H745c33.8,0,61.3,27.4,61.3,61.3s-27.4,61.3-61.3,61.3H402.9l140.4,140.4c23.9,23.9,23.9,62.7,0,86.6c-12,11.9-27.6,17.9-43.3,17.9s-31.4-6-43.3-17.9l-245-245C187.8,519.4,187.8,480.6,211.7,456.7L211.7,456.7z"/></g>
</svg>