<?xml version="1.0" encoding="utf-8"?>
<!-- Generator: Adobe Illustrator 25.0.0, SVG Export Plug-In . SVG Version: 6.00 Build 0)  -->
<svg version="1.1" id="Layer_1" xmlns="http://www.w3.org/2000/svg" xmlns:xlink="http://www.w3.org/1999/xlink" x="0px" y="0px"
	 viewBox="0 0 63.54 54.9" style="enable-background:new 0 0 63.54 54.9;" xml:space="preserve">
<style type="text/css">
	.st0{fill:#FFFFFF;stroke:#FFFFFF;stroke-width:0.5;stroke-miterlimit:10;}
</style>
<g>
	<path class="st0" d="M15.46,17.33H4.12c-1.03,0-1.87-0.84-1.87-1.87V4.12c0-1.03,0.84-1.87,1.87-1.87h11.34
		c1.03,0,1.87,0.84,1.87,1.87v11.34C17.33,16.49,16.49,17.33,15.46,17.33z"/>
	<path class="st0" d="M15.46,34.99H4.12c-1.03,0-1.87-0.84-1.87-1.87V21.78c0-1.03,0.84-1.87,1.87-1.87h11.34
		c1.03,0,1.87,0.84,1.87,1.87v11.34C17.33,34.15,16.49,34.99,15.46,34.99z"/>
	<path class="st0" d="M15.46,52.97H4.12c-1.03,0-1.87-0.84-1.87-1.87V39.76c0-1.03,0.84-1.87,1.87-1.87h11.34
		c1.03,0,1.87,0.84,1.87,1.87V51.1C17.33,52.13,16.49,52.97,15.46,52.97z"/>
	<path class="st0" d="M54.5,12.08H23.71c-1.27,0-2.29-1.03-2.29-2.29v0c0-1.27,1.03-2.29,2.29-2.29H54.5c1.27,0,2.29,1.03,2.29,2.29
		v0C56.79,11.05,55.76,12.08,54.5,12.08z"/>
	<path class="st0" d="M45.77,29.9H23.71c-1.27,0-2.29-1.03-2.29-2.29v0c0-1.27,1.03-2.29,2.29-2.29h22.05
		c1.27,0,2.29,1.03,2.29,2.29v0C48.06,28.87,47.03,29.9,45.77,29.9z"/>
	<path class="st0" d="M58.82,47.72h-35.1c-1.27,0-2.29-1.03-2.29-2.29v0c0-1.27,1.03-2.29,2.29-2.29h35.1
		c1.27,0,2.29,1.03,2.29,2.29v0C61.11,46.69,60.08,47.72,58.82,47.72z"/>
</g>
</svg>
