<?xml version="1.0" encoding="utf-8"?>
<!-- Generator: Adobe Illustrator 25.0.0, SVG Export Plug-In . SVG Version: 6.00 Build 0)  -->
<svg version="1.1" id="Layer_1" xmlns="http://www.w3.org/2000/svg" xmlns:xlink="http://www.w3.org/1999/xlink" x="0px" y="0px"
	 viewBox="0 0 58.77 47.88" style="enable-background:new 0 0 58.77 47.88;" xml:space="preserve">
<style type="text/css">
	.st0{opacity:0.5;fill:#FFFFFF;stroke:#1F4383;stroke-width:0.5;stroke-miterlimit:10;}
	.st1{opacity:0.5;fill:#204283;stroke:#1F4383;stroke-width:0.5;stroke-miterlimit:10;}
	.st2{fill:#FFFFFF;stroke:#204283;stroke-miterlimit:10;}
	.st3{fill:#204283;stroke:#204283;stroke-miterlimit:10;}
	.st4{fill:#FFFFFF;stroke:#204283;stroke-width:0.5;stroke-miterlimit:10;}
</style>
<rect class="st0" width="58.77" height="47.88"/>
<rect x="-0.15" y="0.21" class="st1" width="58.77" height="47.88"/>
<polyline class="st2" points="6.57,43.02 6.57,10.17 17.46,10.17 17.46,19.78 17.46,20.01 11.13,20.01 6.57,43.02 "/>
<rect x="43.24" y="15.3" class="st2" width="4.8" height="4.71"/>
<polygon class="st2" points="38.4,7.2 43.24,12.03 43.24,20.01 17.46,20.01 17.46,7.2 "/>
<path class="st3" d="M33.5,10.76H20.16c-0.32,0-0.58-0.26-0.58-0.58v0c0-0.32,0.26-0.58,0.58-0.58H33.5c0.32,0,0.58,0.26,0.58,0.58
	v0C34.08,10.49,33.82,10.76,33.5,10.76z"/>
<path class="st3" d="M35.37,14.77H20.16c-0.32,0-0.58-0.26-0.58-0.58v0c0-0.32,0.26-0.59,0.58-0.59h15.22
	c0.32,0,0.58,0.26,0.58,0.59v0C35.96,14.51,35.7,14.77,35.37,14.77z"/>
<polyline class="st4" points="37.7,7.2 37.7,12.36 42.94,12.36 "/>
<polygon class="st2" points="48.93,43.02 53.49,20.01 11.13,20.01 6.57,43.02 "/>
</svg>
