<?xml version="1.0" encoding="utf-8"?>
<!-- Generator: Adobe Illustrator 25.0.0, SVG Export Plug-In . SVG Version: 6.00 Build 0)  -->
<svg version="1.1" id="Layer_1" xmlns="http://www.w3.org/2000/svg" xmlns:xlink="http://www.w3.org/1999/xlink" x="0px" y="0px"
	 viewBox="0 0 73.92 72.96" style="enable-background:new 0 0 73.92 72.96;" xml:space="preserve">
<style type="text/css">
	.st0{fill:#FFFFFF;stroke:#000000;stroke-miterlimit:10;}
	.st1{fill:#FFFFFF;stroke:#FFFFFF;stroke-miterlimit:10;}
</style>
<path class="st0" d="M69,15.42"/>
<g>
	<path class="st1" d="M71.64,11.02h-20.8c-2.44,0-4.41-1.97-4.41-4.41V6.09c0-2.44,1.97-4.41,4.41-4.41h17.2
		c1.99,0,3.6,1.61,3.6,3.6V11.02z"/>
	<path class="st1" d="M62.3,22.48V1.68h6.1c1.79,0,3.24,1.45,3.24,3.24v17.56c0,2.44-1.97,4.41-4.41,4.41h-0.52
		C64.28,26.89,62.3,24.92,62.3,22.48z"/>
	<path class="st1" d="M43,23.71L60.37,6.35l6.6,6.6L49.61,30.32c-1.72,1.72-4.51,1.72-6.24,0L43,29.95
		C41.28,28.23,41.28,25.44,43,23.71z"/>
</g>
<g>
	<path class="st1" d="M2.4,61.58h20.8c2.44,0,4.41,1.97,4.41,4.41v0.52c0,2.44-1.97,4.41-4.41,4.41H6c-1.99,0-3.6-1.61-3.6-3.6
		V61.58z"/>
	<path class="st1" d="M11.74,50.12v20.8h-6.1c-1.79,0-3.24-1.45-3.24-3.24V50.12c0-2.44,1.97-4.41,4.41-4.41h0.52
		C9.76,45.71,11.74,47.68,11.74,50.12z"/>
	<path class="st1" d="M31.04,48.89L13.67,66.25l-6.6-6.6l17.37-17.37c1.72-1.72,4.51-1.72,6.24,0l0.36,0.36
		C32.76,44.37,32.76,47.16,31.04,48.89z"/>
</g>
</svg>
