<?xml version="1.0" encoding="utf-8"?>
<!-- Generator: Adobe Illustrator 25.0.0, SVG Export Plug-In . SVG Version: 6.00 Build 0)  -->
<svg version="1.1" id="Layer_1" xmlns="http://www.w3.org/2000/svg" xmlns:xlink="http://www.w3.org/1999/xlink" x="0px" y="0px"
	 viewBox="0 0 73.92 72.96" style="enable-background:new 0 0 73.92 72.96;" xml:space="preserve">
<style type="text/css">
	.st0{fill:#FFFFFF;stroke:#000000;stroke-miterlimit:10;}
	.st1{fill:#FFFFFF;stroke:#FFFFFF;stroke-miterlimit:10;}
</style>
<path class="st0" d="M69,15.42"/>
<g>
	<path class="st1" d="M41.71,22.27h20.8c2.44,0,4.41,1.97,4.41,4.41v0.52c0,2.44-1.97,4.41-4.41,4.41h-17.2
		c-1.99,0-3.6-1.61-3.6-3.6V22.27z"/>
	<path class="st1" d="M51.05,10.8v20.8h-6.1c-1.79,0-3.24-1.45-3.24-3.24V10.8c0-2.44,1.97-4.41,4.41-4.41h0.52
		C49.07,6.39,51.05,8.37,51.05,10.8z"/>
	<path class="st1" d="M70.35,9.57L52.98,26.94l-6.6-6.6L63.75,2.97c1.72-1.72,4.51-1.72,6.24,0l0.36,0.36
		C72.07,5.06,72.07,7.85,70.35,9.57z"/>
</g>
<g>
	<path class="st1" d="M32.33,50.33h-20.8c-2.44,0-4.41-1.97-4.41-4.41V45.4c0-2.44,1.97-4.41,4.41-4.41h17.2
		c1.99,0,3.6,1.61,3.6,3.6V50.33z"/>
	<path class="st1" d="M22.99,61.8l0-20.8h6.1c1.79,0,3.24,1.45,3.24,3.24V61.8c0,2.44-1.97,4.41-4.41,4.41H27.4
		C24.97,66.21,22.99,64.23,22.99,61.8z"/>
	<path class="st1" d="M3.69,63.03l17.37-17.37l6.6,6.6L10.29,69.63c-1.72,1.72-4.51,1.72-6.24,0l-0.36-0.36
		C1.97,67.54,1.97,64.75,3.69,63.03z"/>
</g>
</svg>
