<?xml version="1.0" encoding="utf-8"?>
<!-- Generator: Adobe Illustrator 18.0.0, SVG Export Plug-In . SVG Version: 6.00 Build 0)  -->
<!DOCTYPE svg PUBLIC "-//W3C//DTD SVG 1.1//EN" "http://www.w3.org/Graphics/SVG/1.1/DTD/svg11.dtd">
<svg version="1.1" id="Icon_Set" xmlns="http://www.w3.org/2000/svg" xmlns:xlink="http://www.w3.org/1999/xlink" x="0px" y="0px"
	 viewBox="0 0 256 256" style="enable-background:new 0 0 256 256;" xml:space="preserve">
<style type="text/css">
	.st0{fill:#4C4372;}
	.st1{fill:#F1C48B;}
	.st2{fill:#FFFFFF;}
	.st3{fill:#A3D0F1;}
	.st4{fill:#7BACF1;}
	.st5{fill:#D4E7F8;}
	.st6{fill:#FD919E;}
	.st7{fill:#D3E6F7;}
	.st8{fill:#E8677D;}
	.st9{fill:#D3E6F8;}
</style>
<g>
	<g>
		<circle class="st1" cx="128" cy="128" r="104.245"/>
	</g>
	<g>
		<polygon class="st5" points="128,78.085 78.091,133.539 78.091,203.136 177.909,203.136 177.909,133.539 		"/>
	</g>
	<g>
		<polygon class="st3" points="128,78.085 78.091,133.539 78.091,145.539 128,90.085 165.993,132.298 165.993,203.136 
			177.909,203.136 177.909,145.539 177.909,133.539 		"/>
	</g>
	<g>
		<g>
			<path class="st6" d="M200.207,153.363c-2.736,0-5.461-1.116-7.436-3.311L128,78.085l-64.771,71.968
				c-3.694,4.106-10.018,4.438-14.122,0.744c-4.105-3.695-4.438-10.018-0.743-14.122l72.204-80.227
				c1.896-2.107,4.598-3.311,7.433-3.311c2.835,0,5.536,1.203,7.433,3.311l72.204,80.227c3.695,4.105,3.362,10.428-0.743,14.122
				C204.982,152.516,202.591,153.363,200.207,153.363z"/>
		</g>
	</g>
	<g>
		<path class="st8" d="M165.993,90.402v29.896l26.779,29.754c1.975,2.194,4.699,3.311,7.436,3.311c2.384,0,4.775-0.847,6.687-2.567
			c4.105-3.695,4.438-10.018,0.743-14.122L165.993,90.402z"/>
	</g>
	<g>
		<polygon class="st6" points="177.909,103.643 177.909,52.864 154.076,52.864 154.076,77.162 		"/>
	</g>
	<g>
		<polygon class="st8" points="165.993,52.864 165.993,90.402 177.909,103.643 177.909,52.864 		"/>
	</g>
	<g>
		<path class="st4" d="M128,130.333L128,130.333c-12.677,0-22.954,10.277-22.954,22.954v49.849h45.909v-49.849
			C150.954,140.61,140.677,130.333,128,130.333z"/>
	</g>
	<g>
		<path class="st0" d="M177.909,206.136H78.091c-1.657,0-3-1.343-3-3v-69.597c0-0.741,0.274-1.456,0.771-2.007l49.909-55.455
			c1.137-1.265,3.322-1.265,4.459,0l49.909,55.455c0.496,0.551,0.771,1.266,0.771,2.007v69.597
			C180.909,204.793,179.566,206.136,177.909,206.136z M81.091,200.136h93.818V134.69L128,82.569L81.091,134.69V200.136z"/>
	</g>
	<g>
		<path class="st0" d="M150.954,206.136h-45.908c-1.657,0-3-1.343-3-3v-49.849c0-14.311,11.643-25.954,25.954-25.954
			s25.954,11.643,25.954,25.954v49.849C153.954,204.793,152.611,206.136,150.954,206.136z M108.046,200.136h39.908v-46.849
			c0-11.003-8.951-19.954-19.954-19.954s-19.954,8.951-19.954,19.954V200.136z"/>
	</g>
	<g>
		<path class="st0" d="M177.91,106.643c-0.835,0-1.65-0.348-2.23-0.993l-23.833-26.481c-0.496-0.551-0.771-1.266-0.771-2.007V52.864
			c0-1.657,1.343-3,3-3h23.833c1.657,0,3,1.343,3,3v50.779c0,1.242-0.766,2.356-1.925,2.801
			C178.634,106.578,178.271,106.643,177.91,106.643z M157.076,76.01l17.833,19.815V55.864h-17.833V76.01z"/>
	</g>
	<g>
		<g>
			<path class="st0" d="M55.793,156.364c-3.214,0-6.302-1.185-8.693-3.337c-2.581-2.323-4.104-5.512-4.286-8.98
				c-0.183-3.467,0.997-6.799,3.32-9.38l72.204-80.227c2.461-2.735,5.982-4.304,9.662-4.304s7.201,1.569,9.663,4.304l72.203,80.227
				c2.323,2.581,3.503,5.912,3.32,9.379c-0.183,3.468-1.705,6.657-4.286,8.98c-2.392,2.152-5.479,3.337-8.693,3.337
				c-3.682,0-7.204-1.569-9.666-4.304L128,82.569L65.458,152.06C62.998,154.794,59.476,156.363,55.793,156.364z M128,56.136
				c-1.981,0-3.877,0.845-5.202,2.317l-72.205,80.227c-1.251,1.39-1.886,3.184-1.787,5.051c0.098,1.867,0.918,3.584,2.308,4.835
				c1.288,1.159,2.95,1.797,4.68,1.797c1.983,0,3.881-0.845,5.205-2.317l64.772-71.969c1.137-1.265,3.322-1.265,4.459,0
				l64.771,71.968c1.326,1.473,3.223,2.317,5.206,2.317c1.73,0,3.392-0.638,4.68-1.797c1.39-1.251,2.21-2.968,2.308-4.835
				c0.099-1.867-0.536-3.661-1.787-5.05l-72.204-80.228C131.877,56.981,129.981,56.136,128,56.136z"/>
		</g>
	</g>
</g>
</svg>
