<?xml version="1.0" encoding="utf-8"?>
<!-- Generator: Adobe Illustrator 25.0.0, SVG Export Plug-In . SVG Version: 6.00 Build 0)  -->
<svg version="1.1" id="Слой_1" xmlns="http://www.w3.org/2000/svg" xmlns:xlink="http://www.w3.org/1999/xlink" x="0px" y="0px"
	 viewBox="0 0 30 30" style="enable-background:new 0 0 30 30;" xml:space="preserve">
<style type="text/css">
	.st0{fill-rule:evenodd;clip-rule:evenodd;fill:#FFFFFF;}
</style>
<path class="st0" d="M27.9,13.7c0,0.4,0.1,0.9,0.1,1.3c0,0.4,0,0.9-0.1,1.3c1.2,0.5,2.1,1.8,2.1,3.2c0,1.9-1.6,3.5-3.5,3.5
	c-0.4,0-0.8-0.1-1.1-0.2c-0.7,1-1.6,1.8-2.6,2.6c0.1,0.4,0.2,0.7,0.2,1.1c0,1.9-1.6,3.5-3.5,3.5c-1.4,0-2.6-0.9-3.2-2.1
	C15.9,28,15.4,28,15,28s-0.9,0-1.3-0.1c-0.5,1.2-1.8,2.1-3.2,2.1C8.6,30,7,28.4,7,26.5c0-0.4,0.1-0.8,0.2-1.1
	c-1-0.7-1.8-1.6-2.6-2.6C4.3,22.9,3.9,23,3.5,23C1.6,23,0,21.4,0,19.5c0-1.4,0.9-2.6,2.1-3.2C2,15.9,2,15.4,2,15s0-0.9,0.1-1.3
	C0.9,13.1,0,11.9,0,10.5C0,8.6,1.6,7,3.5,7c0.4,0,0.8,0.1,1.1,0.2c0.7-1,1.6-1.8,2.6-2.6C7.1,4.3,7,3.9,7,3.5C7,1.6,8.6,0,10.5,0
	c1.4,0,2.6,0.8,3.2,2.1C14.1,2,14.6,2,15,2s0.9,0,1.3,0.1C16.9,0.8,18.1,0,19.5,0C21.4,0,23,1.6,23,3.5c0,0.4-0.1,0.8-0.2,1.1
	c1,0.7,1.8,1.6,2.6,2.6C25.7,7.1,26.1,7,26.5,7c1.9,0,3.5,1.6,3.5,3.5C30,11.9,29.1,13.1,27.9,13.7z M15,6c-5,0-9,4-9,9s4,9,9,9
	s9-4,9-9S20,6,15,6z"/>
</svg>
